<svg id="Layer_1" data-name="Layer 1" xmlns="http://www.w3.org/2000/svg" viewBox="0 0 2811 545"><defs><style>.cls-1{fill:#05386b;}</style></defs><title>line</title><path class="cls-1" d="M2467.08,436.86l10.9-55q-40.67-.87-40.65-32.35,0-14.72,10.16-24t29.9-9.27h13.84l16.8-86h-30.64q-19.16,0-29.61-9.56a30.48,30.48,0,0,1-10.45-23.39q0-14.7,10.16-23.67t29.9-9h43.89l13.85-67.26q3.24-17,7.22-26.73T2553.24,56q6.93-5,18.13-5,15.62,0,23.85,8.23t8.26,21.15q0,2.94-5,29.66l-10.9,54.63h64.51l14.15-67.25q2.94-15.27,5.59-24.66a33.87,33.87,0,0,1,9.58-15.86q6.92-6.45,20.18-6.46,15.33,0,23.72,7.93t8.39,21.43a94.83,94.83,0,0,1-.74,12c-.49,3.92-1.13,7.68-1.92,11.31s-1.27,5.92-1.46,6.89l-10.91,55.2q42.12.88,42.13,32.66,0,14.72-10,23.54T2721,230.27h-15l-17.68,86H2721q19.74,0,29.75,9.42t10,23.83q0,14.41-9.87,23.38t-29.9,9h-45.36l-13.85,67.7q-3.24,16.2-5.75,25a33.45,33.45,0,0,1-9.57,15.45q-7.08,6.62-20.32,6.62-14.74,0-23.28-8.24t-8.54-21.49q0-12.06,4.12-30l10.9-55h-65.1l-13.85,67.7q-5.3,25-11.05,36.06t-24.6,11q-15,0-23.57-8.24t-8.54-21.49a80.77,80.77,0,0,1,1.62-15.16Q2465.88,443.35,2467.08,436.86Zm148.66-206.59h-25.48a19.5,19.5,0,0,0-19.11,15.64l-9.5,47a19.5,19.5,0,0,0,19.12,23.36h25.79a19.49,19.49,0,0,0,19.14-15.76l9.18-46.95A19.5,19.5,0,0,0,2615.74,230.27Z"/><path class="cls-1" d="M237.37,401.66v-8.31A144.49,144.49,0,0,1,212.92,418a90.24,90.24,0,0,1-28,14.83q-15.19,4.86-34.66,4.87-23.5,0-42.14-9.74a71,71,0,0,1-28.84-26.82q-12.1-20.65-12.11-59.35V213.41q0-19.47,8.79-29.08t23.26-9.62q14.72,0,23.74,9.74t9,29V317.15q0,22.55,3.8,37.86t13.65,24q9.84,8.67,26.71,8.67A54.37,54.37,0,0,0,207,377.92a56.85,56.85,0,0,0,21.12-25.4q5.46-13.77,5.46-60.3V213.41q0-19.23,9-29t23.51-9.74q14.47,0,23.26,9.62t8.78,29.08V401.18q0,18.51-8.42,27.78T268,438.21a28.25,28.25,0,0,1-22-9.61Q237.37,419,237.37,401.66Z"/><path class="cls-1" d="M421.58,210.56v7.83q17.1-22.54,37.39-33.11t46.65-10.57q25.64,0,45.82,11.16a70.9,70.9,0,0,1,30.14,31.57,75.07,75.07,0,0,1,8.31,25.64,264.93,264.93,0,0,1,1.9,35.13v120.6q0,19.47-8.9,29.43t-23.15,10q-14.47,0-23.5-10.21t-9-29.19v-108q0-32-8.9-49t-35.49-17a52.51,52.51,0,0,0-31.57,10.33Q437,245.45,430.37,263.5q-4.75,14.47-4.75,54.12v81.19q0,19.69-9.14,29.55t-23.62,9.85a29.36,29.36,0,0,1-23-10.21q-9-10.2-9-29.19V211.51q0-18.52,8.07-27.66T391,174.71a29.94,29.94,0,0,1,15.43,4,28.91,28.91,0,0,1,11,12.11Q421.59,198.93,421.58,210.56Z"/><path class="cls-1" d="M620,493.05V468.84H868.82v24.21Z"/><path class="cls-1" d="M1115,311.21v86.17q0,20.43-9.25,30.62t-24.46,10.21q-14.71,0-23.85-10.21t-9.14-30.62V294.12q0-24.45-1.66-38t-9-22.2q-7.35-8.66-23.26-8.66-31.82,0-41.9,21.84t-10.09,62.67v87.59q0,20.19-9.14,30.51t-24.09,10.32q-14.73,0-24.1-10.32t-9.37-30.51V212q0-18.27,8.42-27.77t22.2-9.5q13.29,0,22.2,8.91t8.9,24.56v6.18q16.85-20.18,36.08-29.68t42.73-9.49q24.45,0,42,9.73t29,29.44q16.38-20,35.13-29.56a89.71,89.71,0,0,1,41.55-9.61q26.58,0,45.81,10.44a66.59,66.59,0,0,1,28.73,29.91q8.3,17.58,8.3,55.31V397.38q0,20.43-9.25,30.62T1233,438.21q-14.71,0-24.09-10.32t-9.38-30.51v-109q0-20.88-1.78-33.47a38.36,38.36,0,0,0-9.61-21.13q-7.83-8.55-23.74-8.54a43.46,43.46,0,0,0-24.33,7.59,51.55,51.55,0,0,0-17.92,20.42Q1115,269.67,1115,311.21Z"/><path class="cls-1" d="M1493.39,401.66q-23.51,18.27-45.46,27.41t-49.26,9.14q-24.93,0-43.8-9.85t-29.08-26.7a69.34,69.34,0,0,1-10.2-36.56q0-26.58,16.85-45.34t46.29-25.17q6.16-1.43,30.62-6.41t41.9-9.14q17.45-4.14,37.87-10.08-1.2-25.65-10.33-37.63t-37.86-12q-24.71,0-37.15,6.89t-21.37,20.65q-8.9,13.77-12.58,18.16T1354,269.43a27.6,27.6,0,0,1-18.87-7,22.81,22.81,0,0,1-8-17.93q0-17.08,12.1-33.23t37.75-26.59q25.64-10.44,63.86-10.44,42.72,0,67.18,10.09t34.54,31.93q10.08,21.84,10.09,57.92,0,22.79-.12,38.69t-.36,35.37a130.44,130.44,0,0,0,6,38.1q6.06,19.83,6.06,25.52,0,10-9.38,18.16a31.41,31.41,0,0,1-21.24,8.19q-10,0-19.71-9.37T1493.39,401.66Zm-4.27-93.77q-14.25,5.22-41.43,11t-37.62,8.54a51.11,51.11,0,0,0-19.94,10.68q-9.51,8-9.5,22.2,0,14.72,11.16,25t29.2,10.33a76,76,0,0,0,35.49-8.43q16.24-8.42,23.85-21.72,8.79-14.71,8.79-48.42Z"/><path class="cls-1" d="M1610,180.41h7.12V141.48q0-15.67.83-24.57a36.22,36.22,0,0,1,4.63-15.31,29.19,29.19,0,0,1,10.92-10.8,31,31,0,0,1,15.9-4.16q12.35,0,22.32,9.26a27.4,27.4,0,0,1,8.42,15.07q1.79,8.91,1.79,25.29v44.15h23.73q13.77,0,21,6.53a21.5,21.5,0,0,1,7.24,16.73q0,13.07-10.32,18.28T1694,227.18h-12.1V346.34a194.29,194.29,0,0,0,1.06,23.39q1.08,8.19,5.7,13.29t15.07,5.1a80.9,80.9,0,0,0,15.43-2,79.84,79.84,0,0,1,15.2-2q7.83,0,14.12,6.29a21.14,21.14,0,0,1,6.29,15.55q0,15.66-17.09,24t-49.14,8.31q-30.39,0-46-10.21a47.34,47.34,0,0,1-20.54-28.24q-4.86-18-4.86-48.19V227.18h-8.55q-14,0-21.36-6.65a21.71,21.71,0,0,1-7.36-16.86,20.93,20.93,0,0,1,7.71-16.73Q1595.22,180.42,1610,180.41Z"/><path class="cls-1" d="M1842.82,344.68v54.13q0,19.69-9.25,29.55t-23.51,9.85q-14,0-23-10t-9-29.43V218.39q0-43.66,31.57-43.68,16.14,0,23.26,10.21t7.84,30.15q11.63-19.94,23.85-30.15t32.65-10.21a83.63,83.63,0,0,1,39.64,10.21q19.23,10.22,19.23,27.06,0,11.88-8.19,19.59t-17.69,7.71q-3.56,0-17.21-4.39t-24.09-4.39q-14.25,0-23.27,7.48t-14,22.19q-5,14.73-6.89,35T1842.82,344.68Z"/><path class="cls-1" d="M2024.19,144.56a34.21,34.21,0,0,1-23.15-8.3q-9.61-8.31-9.61-23.51,0-13.75,9.85-22.67a33.13,33.13,0,0,1,22.91-8.9,34,34,0,0,1,22.31,8.07q9.73,8.07,9.74,23.5,0,15-9.5,23.39A32.83,32.83,0,0,1,2024.19,144.56Zm32,66.95v187.3q0,19.47-9.26,29.43t-23.5,10q-14.25,0-23.15-10.21t-8.9-29.19V213.41q0-19.23,8.9-29t23.15-9.74q14.24,0,23.5,9.74T2056.24,211.51Z"/><path class="cls-1" d="M2263.71,411.39l-47-69.08-48.19,69.08q-10.45,14.48-17.69,20.65t-18.39,6.17a30.49,30.49,0,0,1-21-7.71q-8.67-7.71-8.67-17.69,0-10.2,13.3-29.2l58.63-84-52-70q-13.53-17.33-13.53-30.15,0-10,8.07-17.33t21.13-7.36q11.4,0,18.87,6.41t17.45,20.18l42,57.45,40.83-57.45q10.2-14.25,17.69-20.42t18.63-6.17q12.82,0,21.25,7.24t8.42,17.45a30.82,30.82,0,0,1-3.44,14.13,106.6,106.6,0,0,1-10.56,16l-52,70,58.63,84q13.77,19.71,13.77,29.68,0,10.2-8.54,17.56t-21.13,7.36q-11.16,0-18.87-6.41T2263.71,411.39Z"/></svg>