<svg id="Layer_1" data-name="Layer 1" xmlns="http://www.w3.org/2000/svg" viewBox="0 0 739 1000"><defs><style>.cls-1{fill:#05386b;}</style></defs><title>single</title><path class="cls-1" d="M85.75,848.36l23.33-117.72q-87-1.87-87-69.22,0-31.45,21.73-51.27t64-19.83h29.62l35.92-183.85H107.81q-41,0-63.33-20.45T22.12,336q0-31.44,21.73-50.63t64-19.2H201.7l29.62-143.87q6.92-36.44,15.44-57.17t23.3-31.41Q284.87,23,308.83,23q33.39,0,51,17.59t17.65,45.23q0,6.3-10.72,63.45l-23.3,116.86h138l30.25-143.85q6.3-32.65,12-52.75a72.45,72.45,0,0,1,20.49-33.93Q559,21.83,587.35,21.82q32.77,0,50.73,17T656,84.62a204.82,204.82,0,0,1-1.58,25.76q-1.59,12.57-4.1,24.18t-3.14,14.74L623.89,267.36Q714,269.27,714,337.24q0,31.47-21.43,50.35t-63.64,18.88H596.8L559,590.32h69.95q42.21,0,63.64,20.15T714,661.42q0,30.86-21.11,50t-64,19.19h-97L502.28,875.45Q495.34,910.08,490,929A71.45,71.45,0,0,1,469.51,962Q454.38,976.18,426,976.18q-31.52,0-49.78-17.63t-18.27-46q0-25.8,8.8-64.22l23.32-117.72H250.86L221.25,875.45Q209.91,929,197.6,952.58T145,976.18q-32.16,0-50.41-17.63t-18.28-46a173.32,173.32,0,0,1,3.46-32.41Q83.23,862.23,85.75,848.36Zm318-441.89H349.25a41.71,41.71,0,0,0-40.89,33.45L288.05,540.34a41.72,41.72,0,0,0,40.89,50h55.17a41.7,41.7,0,0,0,40.94-33.71l19.63-100.42A41.72,41.72,0,0,0,403.73,406.47Z"/></svg>