<svg id="Layer_1" data-name="Layer 1" xmlns="http://www.w3.org/2000/svg" viewBox="0 0 1000 1000"><defs><style>.cls-1{fill:#05386b;}</style></defs><title>stack</title><path class="cls-1" d="M287.89,638.62l17.41-87.86q-64.91-1.39-64.9-51.64,0-23.49,16.22-38.27t47.73-14.79h22.1l26.81-137.2H304.35q-30.57,0-47.26-15.26T240.4,256.27q0-23.47,16.22-37.79t47.73-14.33h70.07l22.1-107.36Q401.68,69.61,408,54.13t17.39-23.44q11-7.95,28.93-8,24.92,0,38.08,13.13T505.61,69.6q0,4.7-8,47.35l-17.39,87.2h103L605.78,96.81q4.69-24.37,8.92-39.36A54.06,54.06,0,0,1,630,32.13q11-10.3,32.21-10.31,24.46,0,37.86,12.65t13.4,34.22a153.06,153.06,0,0,1-1.19,19.22q-1.18,9.38-3.06,18t-2.34,11l-17.4,88.1q67.23,1.42,67.24,52.15,0,23.48-16,37.57t-47.49,14.09h-24L641,446.06h52.2q31.5,0,47.49,15t16,38q0,23-15.75,37.33t-47.73,14.31H620.82l-22.1,108.07q-5.18,25.84-9.18,39.94a53.44,53.44,0,0,1-15.27,24.67Q563,734,541.83,734q-23.52,0-37.15-13.16T491,686.54q0-19.24,6.57-47.92L515,550.76H411.1L389,658.83q-8.46,39.95-17.64,57.55T332.09,734q-24,0-37.61-13.16t-13.64-34.3a129.13,129.13,0,0,1,2.58-24.19Q286,649,287.89,638.62ZM525.18,308.86H484.52a31.13,31.13,0,0,0-30.51,25l-15.16,74.94a31.14,31.14,0,0,0,30.52,37.3h41.17a31.14,31.14,0,0,0,30.55-25.16L555.73,346A31.12,31.12,0,0,0,525.18,308.86Z"/><path class="cls-1" d="M131.38,898v-3.31a57.75,57.75,0,0,1-9.73,9.83,35.93,35.93,0,0,1-11.15,5.9,45.16,45.16,0,0,1-13.79,1.94A35.55,35.55,0,0,1,80,908.43a28.27,28.27,0,0,1-11.48-10.67q-4.81-8.22-4.82-23.61v-51.1c0-5.17,1.17-9,3.5-11.58a11.93,11.93,0,0,1,9.26-3.82,12.27,12.27,0,0,1,9.44,3.87q3.59,3.88,3.59,11.53v41.27A63.57,63.57,0,0,0,91,879.39a18.14,18.14,0,0,0,5.43,9.54q3.93,3.45,10.63,3.45a21.58,21.58,0,0,0,12.28-3.88,22.67,22.67,0,0,0,8.41-10.1q2.16-5.48,2.17-24V823.05q0-7.65,3.59-11.53a12.16,12.16,0,0,1,9.35-3.87,11.94,11.94,0,0,1,9.26,3.82c2.32,2.56,3.49,6.41,3.49,11.58v74.71q0,7.37-3.35,11a11.92,11.92,0,0,1-17.38-.14Q131.38,904.85,131.38,898Z"/><path class="cls-1" d="M204.68,821.91V825a45.17,45.17,0,0,1,14.88-13.18,39.64,39.64,0,0,1,18.56-4.2,37.06,37.06,0,0,1,18.23,4.44,28.21,28.21,0,0,1,12,12.56,30,30,0,0,1,3.31,10.2,106.65,106.65,0,0,1,.75,14v48q0,7.74-3.54,11.71a12.72,12.72,0,0,1-18.56-.1q-3.59-4-3.59-11.61v-43q0-12.75-3.54-19.51t-14.12-6.75a20.88,20.88,0,0,0-12.56,4.11A23.65,23.65,0,0,0,208.17,843q-1.89,5.76-1.89,21.53v32.31q0,7.83-3.63,11.76a12.26,12.26,0,0,1-9.4,3.92,11.67,11.67,0,0,1-9.16-4.07q-3.6-4-3.59-11.61V822.29q0-7.37,3.21-11a11.1,11.1,0,0,1,8.78-3.64,12,12,0,0,1,6.14,1.6,11.53,11.53,0,0,1,4.39,4.82A16.89,16.89,0,0,1,204.68,821.91Z"/><path class="cls-1" d="M283.64,934.32v-9.64h99v9.64Z"/><path class="cls-1" d="M480.58,862v34.29q0,8.13-3.68,12.18a12.5,12.5,0,0,1-9.73,4.07,12.13,12.13,0,0,1-9.49-4.07q-3.65-4-3.64-12.18V855.16a132.17,132.17,0,0,0-.66-15.11,16.39,16.39,0,0,0-3.59-8.83q-2.93-3.45-9.25-3.45-12.66,0-16.68,8.69t-4,24.94v34.85q0,8-3.64,12.14a12.17,12.17,0,0,1-9.58,4.11,12.35,12.35,0,0,1-9.59-4.11q-3.74-4.11-3.73-12.14V822.48q0-7.28,3.35-11.05a11.23,11.23,0,0,1,8.83-3.78,12,12,0,0,1,8.83,3.54q3.56,3.54,3.55,9.78v2.45a44.85,44.85,0,0,1,14.35-11.8,37.87,37.87,0,0,1,17-3.78,34,34,0,0,1,16.71,3.87,30.33,30.33,0,0,1,11.53,11.71,44.69,44.69,0,0,1,14-11.76A35.67,35.67,0,0,1,508,807.84q10.57,0,18.23,4.15a26.49,26.49,0,0,1,11.43,11.91q3.3,7,3.3,22v50.35q0,8.13-3.68,12.18a12.51,12.51,0,0,1-9.73,4.07,12.36,12.36,0,0,1-9.59-4.11q-3.74-4.11-3.73-12.14V852.89a99.47,99.47,0,0,0-.71-13.31,15.32,15.32,0,0,0-3.82-8.41q-3.12-3.4-9.45-3.4a17.32,17.32,0,0,0-9.68,3,20.54,20.54,0,0,0-7.13,8.13Q480.58,845.43,480.58,862Z"/><path class="cls-1" d="M631.15,898a79.9,79.9,0,0,1-18.09,10.91,50.67,50.67,0,0,1-19.6,3.64A37.2,37.2,0,0,1,576,908.58,28.8,28.8,0,0,1,564.46,898a27.55,27.55,0,0,1-4.06-14.55,26,26,0,0,1,6.71-18q6.71-7.46,18.42-10,2.44-.57,12.18-2.55t16.67-3.64q6.95-1.65,15.07-4-.48-10.2-4.11-15t-15.07-4.77q-9.82,0-14.78,2.74a24,24,0,0,0-8.5,8.21,83.89,83.89,0,0,1-5,7.23c-1,1.17-3.07,1.75-6.28,1.75a11,11,0,0,1-7.51-2.79,9.07,9.07,0,0,1-3.16-7.13,21.76,21.76,0,0,1,4.82-13.22q4.81-6.44,15-10.58t25.4-4.16q17,0,26.73,4t13.75,12.71q4,8.69,4,23.05c0,6,0,11.18,0,15.39s-.08,8.91-.15,14.08A52,52,0,0,0,657,891.86q2.41,7.89,2.41,10.15c0,2.65-1.24,5-3.73,7.23a12.53,12.53,0,0,1-8.45,3.26c-2.65,0-5.26-1.25-7.84-3.73A55,55,0,0,1,631.15,898Zm-1.7-37.31A128.67,128.67,0,0,1,613,865q-10.83,2.33-15,3.4a20.45,20.45,0,0,0-7.93,4.25,10.9,10.9,0,0,0-3.78,8.83,13.08,13.08,0,0,0,4.44,10q4.44,4.11,11.62,4.11a30.28,30.28,0,0,0,14.12-3.35,22.38,22.38,0,0,0,9.49-8.65q3.49-5.85,3.5-19.27Z"/><path class="cls-1" d="M677.53,809.92h2.83V794.43q0-6.24.33-9.78a14.39,14.39,0,0,1,1.84-6.09,11.59,11.59,0,0,1,4.35-4.3,12.35,12.35,0,0,1,6.33-1.65,12.69,12.69,0,0,1,8.87,3.68,10.89,10.89,0,0,1,3.36,6,54.62,54.62,0,0,1,.71,10.06v17.57h9.44q5.48,0,8.36,2.59a8.59,8.59,0,0,1,2.88,6.66c0,3.47-1.37,5.89-4.11,7.28s-6.66,2.07-11.76,2.07h-4.81v47.42a78.07,78.07,0,0,0,.42,9.31,9.47,9.47,0,0,0,2.27,5.29c1.23,1.35,3.22,2,6,2a31.9,31.9,0,0,0,6.14-.81,32.19,32.19,0,0,1,6-.8,7.8,7.8,0,0,1,5.62,2.5,8.4,8.4,0,0,1,2.5,6.19q0,6.24-6.8,9.54t-19.55,3.31q-12.09,0-18.32-4.07a18.79,18.79,0,0,1-8.17-11.24Q680.35,890,680.36,878v-49.5H677q-5.58,0-8.5-2.64a8.65,8.65,0,0,1-2.93-6.71,8.34,8.34,0,0,1,3.07-6.66C670.65,810.78,673.62,809.92,677.53,809.92Z"/><path class="cls-1" d="M770.19,875.28v21.54q0,7.83-3.69,11.76a12.27,12.27,0,0,1-9.35,3.92,11.82,11.82,0,0,1-9.16-4q-3.59-4-3.59-11.71V825q0-17.38,12.56-17.38,6.43,0,9.26,4.06t3.12,12a45.13,45.13,0,0,1,9.49-12q4.86-4.07,13-4.06a33.21,33.21,0,0,1,15.77,4.06q7.65,4.06,7.65,10.77a10.23,10.23,0,0,1-3.25,7.79,10.11,10.11,0,0,1-7,3.07,32.07,32.07,0,0,1-6.85-1.75,32,32,0,0,0-9.59-1.74,14,14,0,0,0-9.25,3,19.15,19.15,0,0,0-5.58,8.83,62.19,62.19,0,0,0-2.74,13.94Q770.19,863.66,770.19,875.28Z"/><path class="cls-1" d="M842.35,795.65a13.62,13.62,0,0,1-9.21-3.3q-3.82-3.32-3.82-9.35a11.58,11.58,0,0,1,3.92-9,13.13,13.13,0,0,1,9.11-3.55,13.47,13.47,0,0,1,8.88,3.22q3.87,3.21,3.87,9.35c0,4-1.26,7.07-3.77,9.3A13.05,13.05,0,0,1,842.35,795.65Zm12.75,26.64v74.53q0,7.74-3.68,11.71a12.23,12.23,0,0,1-9.35,4,11.64,11.64,0,0,1-9.21-4.07q-3.54-4-3.54-11.61V823.05q0-7.65,3.54-11.53a11.9,11.9,0,0,1,9.21-3.87,12.35,12.35,0,0,1,9.35,3.87C853.88,814.11,855.1,817.69,855.1,822.29Z"/><path class="cls-1" d="M937.66,901.82,919,874.34l-19.18,27.48a48.72,48.72,0,0,1-7,8.22,10.92,10.92,0,0,1-7.33,2.46,12.13,12.13,0,0,1-8.35-3.07,9.23,9.23,0,0,1-3.45-7q0-4.07,5.29-11.62l23.33-33.44-20.69-27.86q-5.38-6.9-5.38-12a9,9,0,0,1,3.21-6.89,12,12,0,0,1,8.41-2.93,11.15,11.15,0,0,1,7.51,2.55,48.14,48.14,0,0,1,6.94,8L919,841.09l16.24-22.86a44.13,44.13,0,0,1,7-8.12,11.24,11.24,0,0,1,7.42-2.46,12.51,12.51,0,0,1,8.45,2.88,8.87,8.87,0,0,1,3.35,6.94,12.24,12.24,0,0,1-1.37,5.62,42.28,42.28,0,0,1-4.2,6.38L935.2,857.33l23.33,33.44q5.49,7.85,5.48,11.81a8.92,8.92,0,0,1-3.4,7,12.43,12.43,0,0,1-8.4,2.93A11.35,11.35,0,0,1,944.7,910,43.38,43.38,0,0,1,937.66,901.82Z"/></svg>